<svg
  xmlns="http://www.w3.org/2000/svg"
  width="36.015"
  height="40"
  viewBox="0 0 36.015 40"
>
  <path
    d="M1073.855,431.734a4.456,4.456,0,1,0-3.154-1.3A4.438,4.438,0,0,0,1073.855,431.734Zm1.7-2.763a2.4,2.4,0,1,1,.7-1.7A2.378,2.378,0,0,1,1075.55,428.971Z"
    transform="translate(-1044.112 -422.813)"
  />
  <path
    d="M1049.937,431.734a4.456,4.456,0,1,0-3.155-1.3A4.426,4.426,0,0,0,1049.937,431.734Zm1.7-2.764a2.4,2.4,0,1,1,.7-1.7A2.4,2.4,0,0,1,1051.633,428.97Z"
    transform="translate(-1043.662 -422.813)"
  />
  <path
    d="M1078.629,433.824h0a3.56,3.56,0,0,0-2.525-1.044h-5.242a3.579,3.579,0,0,0-3.522,2.957,6.453,6.453,0,0,0-5.021,1.839l-.647.646-.65-.645a6.358,6.358,0,0,0-4.524-1.859c-.169,0-.335,0-.5.018a3.577,3.577,0,0,0-3.523-2.957h-5.241a3.576,3.576,0,0,0-3.575,3.561V459.22a3.608,3.608,0,0,0,3.608,3.593,3.6,3.6,0,0,0,2.549-1.054l.04-.04.042.041a3.606,3.606,0,0,0,6.153-2.54v-8.57l4.9,4.877a1.041,1.041,0,0,0,1.442,0l4.895-4.877v8.57a3.609,3.609,0,0,0,6.158,2.539l.038-.04.041.041a3.605,3.605,0,0,0,6.154-2.54V436.339A3.529,3.529,0,0,0,1078.629,433.824ZM1049.86,446.15a1.019,1.019,0,0,0-1.02,1.015V459.22a1.569,1.569,0,0,1-3.138,0V441.451c.013.016.028.031.042.047a11.856,11.856,0,0,0,4.9,3.145,6.344,6.344,0,0,0,1.33,1.942l2.042,2.035v10.6a1.569,1.569,0,0,1-3.139,0V447.165A1.017,1.017,0,0,0,1049.86,446.15Zm1.547-7.928-.074.1.11.084-.663,1.141-.127-.053-.047.114a6.381,6.381,0,0,0-.5,2.621,9.259,9.259,0,0,1-2.85-2.079,5.675,5.675,0,0,1-1.555-3.81,1.539,1.539,0,0,1,1.536-1.531h5.241a1.532,1.532,0,0,1,1.086.451,1.516,1.516,0,0,1,.444.954A6.387,6.387,0,0,0,1051.406,438.222Zm19.79,3.859a4.3,4.3,0,0,1-1.271,3.069l-8.254,8.224-8.257-8.225a4.3,4.3,0,0,1-1.269-3.068,4.363,4.363,0,0,1,7.435-3.072l1.37,1.366a1.028,1.028,0,0,0,1.439,0l1.373-1.366a4.362,4.362,0,0,1,7.434,3.072Zm2.286,5.053a1.018,1.018,0,0,0-1.019,1.015V459.22a1.539,1.539,0,0,1-.463,1.1,1.568,1.568,0,0,1-2.675-1.1v-10.6l2.042-2.034a6.41,6.41,0,0,0,1.329-1.943,11.829,11.829,0,0,0,4.9-3.145l.043-.048v17.77a1.569,1.569,0,0,1-3.138,0V448.149A1.019,1.019,0,0,0,1073.482,447.134Zm2.6-6.986a9.227,9.227,0,0,1-2.851,2.079,6.418,6.418,0,0,0-.495-2.621l-.047-.114-.127.053-.664-1.141.11-.084-.074-.1a6.37,6.37,0,0,0-2.6-2.009,1.5,1.5,0,0,1,.446-.956,1.524,1.524,0,0,1,1.083-.451h5.242a1.543,1.543,0,0,1,1.538,1.531A5.671,5.671,0,0,1,1076.083,440.148Z"
    transform="translate(-1043.662 -422.813)"
  />
</svg>