<svg xmlns="http://www.w3.org/2000/svg" width="47.286" height="40" viewBox="0 0 47.286 40">
  <path
    d="M965.9,438.2a.933.933,0,0,0,.156-.516v-5.065a5.039,5.039,0,0,0-5.033-5.032h-6.839v-2.714a5.6,5.6,0,0,0-5.593-5.593h-7.515a5.6,5.6,0,0,0-5.593,5.593v2.714h-6.839a5.038,5.038,0,0,0-5.032,5.032v20.246a5.037,5.037,0,0,0,5.032,5.032h24.783a.929.929,0,0,0,.32-.057A11.563,11.563,0,0,0,965.9,438.2Zm-17.309-16.173h-7.515a2.85,2.85,0,0,0-2.847,2.846v2.714h-.886v-2.714a3.738,3.738,0,0,1,3.733-3.733h7.515a3.739,3.739,0,0,1,3.734,3.733v2.714h-.887v-2.714A2.85,2.85,0,0,0,948.594,422.025Zm-8.5,2.846a.989.989,0,0,1,.988-.988h7.515a.989.989,0,0,1,.988.988v2.714h-9.49ZM965.34,444.1a22.138,22.138,0,0,0,2.777-.522,9.7,9.7,0,0,1,0,8.263,22.077,22.077,0,0,0-2.777-.521A21.653,21.653,0,0,0,965.34,444.1Zm1.772,9.408a9.684,9.684,0,0,1-3.611,2.966,12.848,12.848,0,0,0,1.428-3.332C965.747,453.247,966.48,453.371,967.112,453.512Zm-3.629-2.385c-1.023-.083-2.1-.133-3.219-.152v-6.523c1.115-.019,2.2-.07,3.219-.153A19.578,19.578,0,0,1,963.484,451.127Zm-3.219-8.535v-4.345c1.547.781,2.439,3.137,2.777,4.219C962.146,442.533,961.215,442.575,960.265,442.592Zm4.665-.312a12.883,12.883,0,0,0-1.428-3.332,9.7,9.7,0,0,1,3.611,2.966C966.48,442.055,965.747,442.179,964.93,442.279Zm-1.887,10.681c-.339,1.082-1.232,3.437-2.777,4.218v-4.344C961.215,452.851,962.146,452.893,963.042,452.96Zm-7.414-10.494c.653-2.127,1.665-3.663,2.777-4.224v4.35C957.455,442.575,956.524,442.533,955.628,442.466Zm-4.071-.553a9.7,9.7,0,0,1,3.6-2.963,12.954,12.954,0,0,0-1.422,3.329C952.916,442.177,952.185,442.054,951.557,441.913Zm1.514,4.42a.934.934,0,0,0,.87.987.9.9,0,0,0,.674-.231.924.924,0,0,0,.313-.64,18.623,18.623,0,0,1,.259-2.15c1.023.083,2.1.134,3.219.153v6.523c-1.115.019-2.2.069-3.219.152-.1-.533-.17-1.079-.219-1.625a.93.93,0,0,0-1.008-.843.929.929,0,0,0-.844,1.009c.05.556.122,1.111.217,1.653a21.956,21.956,0,0,0-2.78.522,9.687,9.687,0,0,1,0-8.262,22.167,22.167,0,0,0,2.776.521A21.368,21.368,0,0,0,953.071,446.333Zm-18.832-8.239V443.2a1.6,1.6,0,0,1-3.2,0v-5.106Zm24.166,14.741v4.35c-1.115-.561-2.128-2.1-2.78-4.224C956.523,452.893,957.455,452.851,958.405,452.835ZM950,440.894H936.1v-2.5a1.841,1.841,0,0,0-1.839-1.839h-3.242a1.841,1.841,0,0,0-1.838,1.839v2.5h-.533a3.175,3.175,0,0,1-3.172-3.172v-5.1a3.175,3.175,0,0,1,3.172-3.172h32.379a3.176,3.176,0,0,1,3.173,3.172v4.6a11.555,11.555,0,0,0-14.2,3.673Zm-24.524,11.969v-11.24a4.976,4.976,0,0,0,3.172,1.13h.533v.446a3.46,3.46,0,1,0,6.919,0v-.446h12.789a11.548,11.548,0,0,0,2.424,13.282H928.646A3.175,3.175,0,0,1,925.474,452.863Zm28.273.281a13.044,13.044,0,0,0,1.422,3.334,9.7,9.7,0,0,1-3.612-2.967C952.19,453.371,952.924,453.247,953.746,453.145Z"
    transform="translate(-923.614 -419.278)"
  />
</svg>