<svg xmlns="http://www.w3.org/2000/svg" width="40" height="40" viewBox="0 0 40 40" id="uik-icon" class="home__icon-cards__card--icon" style="--fill:#888; --hoverFill:black; --height:undefinedpx; --width:60px;">
    <path d="M1132.733,426.862H1127.6q.029-.854.029-1.715a1.172,1.172,0,0,0-1.172-1.172h-25.1a1.172,1.172,0,0,0-1.172,1.172q0,.862.029,1.715h-5.133a1.172,1.172,0,0,0-1.172,1.172,25.4,25.4,0,0,0,3.864,13.95c2.463,3.7,5.744,5.825,9.289,6.032a12.023,12.023,0,0,0,2.537,2.131v5.208h-1.966a4.315,4.315,0,0,0-4.31,4.31v1.966h-.083a1.172,1.172,0,0,0,0,2.344h21.338a1.172,1.172,0,0,0,0-2.344h-.083v-1.966a4.315,4.315,0,0,0-4.31-4.31h-1.966v-5.208a12.055,12.055,0,0,0,2.538-2.131c3.544-.207,6.825-2.33,9.288-6.032a25.4,25.4,0,0,0,3.864-13.95A1.172,1.172,0,0,0,1132.733,426.862Zm-33.013,13.823a22.585,22.585,0,0,1-3.447-11.479h4.068a39.185,39.185,0,0,0,3.64,14.217q.469.938.979,1.771A11.308,11.308,0,0,1,1099.72,440.685Zm22.427,18.98v1.967h-16.484v-1.967a1.968,1.968,0,0,1,1.966-1.966h12.552A1.968,1.968,0,0,1,1122.147,459.665Zm-6.276-4.31h-3.932v-4.19a7.62,7.62,0,0,0,3.932,0Zm.726-6.978a1.2,1.2,0,0,0-.152.077,5.475,5.475,0,0,1-5.079,0,1.223,1.223,0,0,0-.153-.079,9.42,9.42,0,0,1-2.649-2.183,1.189,1.189,0,0,0-.149-.175,18.435,18.435,0,0,1-2.337-3.644,38.686,38.686,0,0,1-3.54-16.055h22.734a38.7,38.7,0,0,1-3.539,16.055,18.529,18.529,0,0,1-2.337,3.644,1.14,1.14,0,0,0-.15.175A9.425,9.425,0,0,1,1116.6,448.377Zm11.493-7.692a11.3,11.3,0,0,1-5.24,4.509q.51-.834.979-1.771a39.181,39.181,0,0,0,3.64-14.217h4.068A22.583,22.583,0,0,1,1128.09,440.685Z" transform="translate(-1093.905 -423.975)"></path>
</svg>