<svg xmlns="http://www.w3.org/2000/svg" width="24.642" height="25" viewBox="0 0 24.642 25"><defs><style>.a{fill:#fff;stroke:rgba(0,0,0,0);stroke-miterlimit:10;}</style></defs><g transform="translate(0.5 0.5)"><path class="a" d="M-5752.18,2214.5a11.656,11.656,0,0,1-8.358-3.514A12.012,12.012,0,0,1-5764,2202.5a12.009,12.009,0,0,1,3.463-8.485,11.655,11.655,0,0,1,8.358-3.515,11.656,11.656,0,0,1,8.358,3.515,12.012,12.012,0,0,1,3.462,8.485,12.015,12.015,0,0,1-3.462,8.487A11.655,11.655,0,0,1-5752.18,2214.5Zm-1.694-11.986v6h2.455v-6h1.656l.215-2.118h-1.872v-1.246a.5.5,0,0,1,.521-.577h1.319v-2.057l-1.817-.006a2.322,2.322,0,0,0-2.478,2.514v1.371h-1.166v2.118Z" transform="translate(5764.001 -2190.5)"/></g></svg>