<svg id="Icon_voix" xmlns="http://www.w3.org/2000/svg" width="47.47" height="40" viewBox="0 0 47.47 40">
  <g id="linear_color" data-name="linear color" transform="translate(-891.902 -360.524)">
    <path id="Tracé_8" data-name="Tracé 8" d="M926.68,360.524h0A3.083,3.083,0,0,0,923.6,363.6v.512c-3.141,3.1-5.851,5.565-9.928,7.257a28.8,28.8,0,0,1-9.075,2.617h-9.234a3.466,3.466,0,0,0-3.462,3.464v6.156a3.466,3.466,0,0,0,3.462,3.462h1.925v8.077a1.154,1.154,0,0,0,1.154,1.155h3.844a1.156,1.156,0,0,0,1.121-.874l2.072-8.3a33.86,33.86,0,0,1,8.2,2.549c4.077,1.692,6.787,4.156,9.928,7.257v.512a3.077,3.077,0,0,0,6.155,0V363.6A3.081,3.081,0,0,0,926.68,360.524ZM901.387,393.99h-1.8v-6.923h3.531Zm-4.1-17.693h6.153c4.056-.54,14.092-3.634,20.157-8.981V393.74c-6.065-5.347-16.1-8.441-20.157-8.981h-6.153v0h-1.925a1.156,1.156,0,0,1-1.154-1.157v-6.153a1.156,1.156,0,0,1,1.154-1.154h1.923m0,8.462h0m30.157,12.694a.77.77,0,0,1-1.538,0V363.6a.77.77,0,0,1,1.538,0Z"/>
    <path id="Tracé_1401" data-name="Tracé 1401" d="M938.218,379.374h-3.847a1.154,1.154,0,0,0,0,2.308h3.847a1.154,1.154,0,0,0,0-2.308Z"/>
    <path id="Tracé_1402" data-name="Tracé 1402" d="M932.473,373.349a1.154,1.154,0,0,0,.5-.114l3.467-1.667a1.154,1.154,0,0,0-.98-2.09l-.021.01-3.466,1.666a1.155,1.155,0,0,0,.5,2.2Z"/>
    <path id="Tracé_1403" data-name="Tracé 1403" d="M936.438,389.489l-3.467-1.666a1.154,1.154,0,0,0-1.018,2.072l.018.009,3.466,1.666a1.154,1.154,0,0,0,1.018-2.072Z"/>
  </g>
</svg>
