<svg xmlns="http://www.w3.org/2000/svg" width="24.786" height="25" viewBox="0 0 24.786 25"><defs><style>.a{fill:#fff;stroke:rgba(0,0,0,0);stroke-miterlimit:10;}</style></defs><g transform="translate(0.5 0.5)"><path class="a" d="M-5839.312,2214.5a11.768,11.768,0,0,1-8.41-3.514,11.973,11.973,0,0,1-3.483-8.486,11.972,11.972,0,0,1,3.483-8.485,11.763,11.763,0,0,1,8.41-3.515,11.754,11.754,0,0,1,8.408,3.515,11.976,11.976,0,0,1,3.485,8.485,11.978,11.978,0,0,1-3.485,8.486A11.759,11.759,0,0,1-5839.312,2214.5Zm2.1-12.156c.846,0,1.292.605,1.292,1.75v4.14h2.549V2203.8c0-2.181-1.1-3.483-2.936-3.483a2.536,2.536,0,0,0-2.3,1.279v-1.1h-2.548c.027.6.009,5.508,0,7.591,0,.09,0,.141,0,.146h2.548v-4.32a1.743,1.743,0,0,1,.084-.627A1.423,1.423,0,0,1-5837.208,2202.345Zm-7.9-1.847v7.737h2.551V2200.5Zm1.291-3.731a1.331,1.331,0,0,0-1.44,1.336,1.33,1.33,0,0,0,1.408,1.339h.016a1.334,1.334,0,0,0,1.443-1.339A1.329,1.329,0,0,0-5843.817,2196.766Z" transform="translate(5851.205 -2190.5)"/></g></svg>