<svg xmlns="http://www.w3.org/2000/svg" width="39.996" height="40" viewBox="0 0 39.996 40">
  <path
    d="M1183.137,439.9a6.9,6.9,0,0,0-6.868,6.923c0,2.084,1.04,4.459,3.086,7.06a27.013,27.013,0,0,0,2.968,3.2,1.251,1.251,0,0,0,1.661,0,26.991,26.991,0,0,0,2.962-3.207c1.564-1.995,3.073-4.541,3.073-7.066a6.891,6.891,0,0,0-6.882-6.91Zm.014,14.518c-1.708-1.734-4.38-5-4.382-7.6a4.375,4.375,0,1,1,8.75-.009c0,2.6-2.664,5.87-4.368,7.606Z"
    transform="translate(-1150.023 -422.396)"
  />
  <path
    d="M1183.144,444.9a1.875,1.875,0,1,0,1.734,2.591A1.877,1.877,0,0,0,1183.144,444.9Z"
    transform="translate(-1150.023 -422.396)"
  />
  <path
    d="M1156.068,439.58a1.25,1.25,0,0,0,1.661,0,27.077,27.077,0,0,0,2.965-3.2c2.043-2.6,3.079-4.98,3.079-7.064a6.875,6.875,0,1,0-13.75,0c0,2.084,1.036,4.46,3.079,7.064A27.025,27.025,0,0,0,1156.068,439.58Zm.83-14.684a4.4,4.4,0,0,1,4.375,4.416c0,2.6-2.67,5.868-4.376,7.6-1.706-1.732-4.374-4.995-4.374-7.6A4.4,4.4,0,0,1,1156.9,424.9Z"
    transform="translate(-1150.023 -422.396)"
  />
  <circle cx="1.875" cy="1.875" r="1.875" transform="translate(5 5)" />
  <path
    d="M1185.032,460.519a1.878,1.878,0,0,1-3.272,1.252h-26.112a5.625,5.625,0,0,1,0-11.25h12.539a3.086,3.086,0,0,0,0-6.172H1158.3a1.875,1.875,0,1,1,0-2.5h9.891a5.586,5.586,0,0,1,0,11.172h-12.539a3.125,3.125,0,0,0,0,6.25h26.112a1.877,1.877,0,0,1,3.272,1.248Z"
    transform="translate(-1150.023 -422.396)"
  />
</svg>