<svg xmlns="http://www.w3.org/2000/svg" width="41.643" height="40" viewBox="0 0 41.643 40">
  <path
    d="M1023.245,432.6a2.689,2.689,0,0,0-3.147-4.107c-.35-.352-.718-.7-1.094-1.021a2.678,2.678,0,0,0-1.127-3.062,2.581,2.581,0,0,0-3.181.216,19.927,19.927,0,0,0-17.536.088,2.683,2.683,0,0,0-4.335,2.942,20.172,20.172,0,0,0-1.773,1.786.785.785,0,0,0-.165.786.94.94,0,0,0,.689.6.779.779,0,0,0,.756-.269,18.524,18.524,0,0,1,1.585-1.6,2.707,2.707,0,0,0,3.7-.914,26.092,26.092,0,0,1,5.776,2.5,2.735,2.735,0,0,0,.161,1.591,28.1,28.1,0,0,0-4.063,4.414,2.736,2.736,0,0,0-2.968,1.357,37.825,37.825,0,0,0-7.29.781,2.678,2.678,0,0,0-.8-.816,18.278,18.278,0,0,1,2.134-4.927.826.826,0,0,0-.293-1.155.806.806,0,0,0-1.149.258,19.967,19.967,0,0,0-2.335,5.391,2.692,2.692,0,0,0-.677,5.232,20.028,20.028,0,0,0,6.641,14.874,2.687,2.687,0,0,0,4.221,2.91,19.822,19.822,0,0,0,18.076,0,2.685,2.685,0,0,0,4.285-2.962,19.83,19.83,0,0,0,4.967-6.947.74.74,0,0,0,.035-.081A20.063,20.063,0,0,0,1023.245,432.6Zm-6.8-4.953h0a.96.96,0,0,1-.982-.985.983.983,0,1,1,1.967-.011A.964.964,0,0,1,1016.449,427.647Zm1.122,14.453a38.02,38.02,0,0,0,3.71-8.429,2.6,2.6,0,0,0,.562-.1,18.523,18.523,0,0,1,1.375,15.081,38.268,38.268,0,0,0-5.059-4.141A2.722,2.722,0,0,0,1017.571,442.1Zm-.742,15.362a.961.961,0,0,1,.982.986.983.983,0,1,1-1.966.011A.964.964,0,0,1,1016.829,457.462Zm1.082-1.476a28.283,28.283,0,0,0,.134-3.215.8.8,0,0,0-.411-.713.915.915,0,0,0-.9.013.806.806,0,0,0-.388.727,27.065,27.065,0,0,1-.127,3.031,2.723,2.723,0,0,0-2.019,3.156,18.155,18.155,0,0,1-16.292.038,2.793,2.793,0,0,0,.087-.664,37.926,37.926,0,0,0,16.608-11.969,2.694,2.694,0,0,0,.89.175,26.066,26.066,0,0,1,.576,2.809.8.8,0,0,0,.5.653.911.911,0,0,0,.892-.132.8.8,0,0,0,.289-.768,28.334,28.334,0,0,0-.631-3.067c.047-.034.093-.068.136-.1a36.428,36.428,0,0,1,5.272,4.409,18.2,18.2,0,0,1-4.262,5.814A2.81,2.81,0,0,0,1017.911,455.986Zm-22.6,1.365a1.013,1.013,0,0,1,.982.992.983.983,0,1,1-.982-.992Zm3.572-17.194a.961.961,0,0,1-.983-.986.983.983,0,1,1,1.966-.011A.963.963,0,0,1,998.887,440.158Zm23.2-9.172a.987.987,0,0,1-.971.992.992.992,0,0,1-.011-1.984A.988.988,0,0,1,1022.084,430.986Zm-16.076-.9a.992.992,0,0,1,.011,1.983.992.992,0,0,1-.011-1.983Zm9.547,14.776a.992.992,0,0,1-.011-1.983.992.992,0,0,1,.011,1.983Zm2.944-13.284a2.708,2.708,0,0,0,1.139,1.661,36.307,36.307,0,0,1-3.531,8,2.791,2.791,0,0,0-.56-.056c-.071,0-.142,0-.214.009a28.3,28.3,0,0,0-6.847-9.056,2.743,2.743,0,0,0,.162-1.591,26,26,0,0,1,5.54-2.43,2.7,2.7,0,0,0,3.816.742c.271.238.538.488.8.744A2.707,2.707,0,0,0,1018.5,431.58Zm-4.725-5.116a27.75,27.75,0,0,0-5.973,2.607,2.7,2.7,0,0,0-1.781-.668h0a2.7,2.7,0,0,0-1.783.668,27.631,27.631,0,0,0-6.254-2.69c-.006-.055-.013-.111-.022-.164a18.229,18.229,0,0,1,15.867-.123A2.941,2.941,0,0,0,1013.773,426.464Zm-9.1,6.945a2.7,2.7,0,0,0,2.684,0,26.577,26.577,0,0,1,6.41,8.455l-.042.04a37.547,37.547,0,0,0-12.35-3.727,2.706,2.706,0,0,0-.437-.733A26.363,26.363,0,0,1,1004.676,433.409ZM998.3,441.8a2.716,2.716,0,0,0,3.169-1.9,35.843,35.843,0,0,1,11.447,3.5,2.728,2.728,0,0,0,.374,1.914,36.213,36.213,0,0,1-15.821,11.43A2.663,2.663,0,0,0,995.8,455.7,26.249,26.249,0,0,1,998.3,441.8Zm-4.178,14.136a2.654,2.654,0,0,0-.366.222,19.946,19.946,0,0,1-5.941-13.485,2.614,2.614,0,0,0,1.823-2.323c.89-.137,4.516-.679,6.6-.738a2.7,2.7,0,0,0,.6,1.3A27.941,27.941,0,0,0,994.12,455.934Zm-6.183-15.813a.961.961,0,0,1-.976.991.992.992,0,0,1-.011-1.984A.963.963,0,0,1,987.937,440.121Zm8.36-13.459a.983.983,0,1,1-1.966.011.983.983,0,1,1,1.966-.011Z"
    transform="translate(-984.29 -422.638)"
  />
</svg>