<svg xmlns="http://www.w3.org/2000/svg" width="25.646" height="25" viewBox="0 0 25.646 25"><defs><style>.a{fill:#fff;stroke:rgba(0,0,0,0);stroke-miterlimit:10;}</style></defs><g transform="translate(0.5 0.5)"><path class="a" d="M-5896.3,2214.5a12.41,12.41,0,0,1-8.713-3.514,11.763,11.763,0,0,1-3.61-8.485,11.764,11.764,0,0,1,3.61-8.486,12.409,12.409,0,0,1,8.713-3.515,12.409,12.409,0,0,1,8.713,3.515,11.765,11.765,0,0,1,3.61,8.486,11.763,11.763,0,0,1-3.61,8.485A12.41,12.41,0,0,1-5896.3,2214.5Zm-1.6-13.266a3.944,3.944,0,0,0-2.979,1.333,3.891,3.891,0,0,0-.979,2.34,3.856,3.856,0,0,0,1.154,3.018,4.166,4.166,0,0,0,.374.326,3.955,3.955,0,0,0,2.431.821,3.962,3.962,0,0,0,.6-.044,3.944,3.944,0,0,0,2.208-1.1,3.878,3.878,0,0,0,1.161-2.755l-.011-4.621a5.208,5.208,0,0,0,1.161.678,5.212,5.212,0,0,0,2.032.411h.011v-2.057h-.006a3.176,3.176,0,0,1-1.928-.645,3.192,3.192,0,0,1-1.213-1.928,3.169,3.169,0,0,1-.061-.6h-2.067v5.65l0,3.095a1.87,1.87,0,0,1-1.286,1.777,1.9,1.9,0,0,1-.591.095l-.1,0a1.89,1.89,0,0,1-.856-.262,1.861,1.861,0,0,1-.914-1.578,1.852,1.852,0,0,1,.537-1.338,1.863,1.863,0,0,1,1.338-.56,1.893,1.893,0,0,1,.59.095v-2.1A4.156,4.156,0,0,0-5897.893,2201.234Z" transform="translate(5908.619 -2190.5)"/></g></svg>