<svg xmlns="http://www.w3.org/2000/svg" width="24.786" height="25" viewBox="0 0 24.786 25"><defs><style>.a{fill:#fff;stroke:rgba(0,0,0,0);stroke-miterlimit:10;}</style></defs><g transform="translate(0.5 0.5)"><path class="a" d="M-5781.04,2214.5a11.761,11.761,0,0,1-8.409-3.514,11.975,11.975,0,0,1-3.484-8.486,11.974,11.974,0,0,1,3.484-8.485,11.759,11.759,0,0,1,8.409-3.515,11.761,11.761,0,0,1,8.41,3.515,11.976,11.976,0,0,1,3.484,8.485,11.977,11.977,0,0,1-3.484,8.486A11.762,11.762,0,0,1-5781.04,2214.5Zm-5.882-8.143h0a6.875,6.875,0,0,0,3.74,1.105,6.908,6.908,0,0,0,6.942-7c0-.1,0-.2-.007-.317a5,5,0,0,0,1.218-1.275,4.836,4.836,0,0,1-1.4.387,2.454,2.454,0,0,0,1.072-1.362,4.851,4.851,0,0,1-1.548.6,2.445,2.445,0,0,0-1.781-.776,2.453,2.453,0,0,0-2.439,2.461,2.473,2.473,0,0,0,.063.561,6.929,6.929,0,0,1-5.029-2.572,2.473,2.473,0,0,0-.33,1.237,2.468,2.468,0,0,0,1.084,2.05,2.445,2.445,0,0,1-1.1-.308v.031a2.467,2.467,0,0,0,1.957,2.415,2.455,2.455,0,0,1-.643.086,2.509,2.509,0,0,1-.459-.044,2.44,2.44,0,0,0,2.278,1.708,4.83,4.83,0,0,1-3.03,1.054A4.9,4.9,0,0,1-5786.921,2206.356Z" transform="translate(5792.932 -2190.499)"/></g></svg>