<svg xmlns="http://www.w3.org/2000/svg" width="24.786" height="25" viewBox="0 0 24.786 25"><defs><style>.a{fill:#fff;stroke:rgba(0,0,0,0);stroke-miterlimit:10;}</style></defs><g transform="translate(0.5 0.5)"><path class="a" d="M-5925.726,2214.5a11.761,11.761,0,0,1-8.409-3.515,11.977,11.977,0,0,1-3.484-8.486,11.977,11.977,0,0,1,3.484-8.485,11.759,11.759,0,0,1,8.409-3.515,11.761,11.761,0,0,1,8.41,3.515,11.974,11.974,0,0,1,3.483,8.485,11.974,11.974,0,0,1-3.483,8.486A11.762,11.762,0,0,1-5925.726,2214.5Zm4.617-6.937h0a6.626,6.626,0,0,1,.786.392l0,0c.193.108.368.2.547.289-.122-.4-.244-.779-.374-1.15a3.742,3.742,0,0,0,1.249-1.356,2.921,2.921,0,0,0,.073-2.533,3.639,3.639,0,0,0-1.718-1.723,4.755,4.755,0,0,0-2.107-.486,4.694,4.694,0,0,0-2.131.5,3.47,3.47,0,0,0-1.877,2.278,2.858,2.858,0,0,0,.375,2.165,4.084,4.084,0,0,0,2.761,1.778,4.282,4.282,0,0,0,.831.079,5.744,5.744,0,0,0,1.58-.239Zm-6.225-10.452a5.712,5.712,0,0,0-1.911.325,4.677,4.677,0,0,0-2.416,1.875,3.437,3.437,0,0,0-.444,2.69,4.12,4.12,0,0,0,1.813,2.416c-.135.386-.311.893-.474,1.4.392-.2.786-.409,1.167-.611l.013-.007.006,0,.443-.235a6.1,6.1,0,0,0,1.852.289c.061,0,.122,0,.182,0a3.423,3.423,0,0,1-.142-1.615,3.426,3.426,0,0,1,1.111-1.946,4.789,4.789,0,0,1,3.226-1.179c.127,0,.256,0,.383.014a4.166,4.166,0,0,0-2.118-2.726A5.562,5.562,0,0,0-5927.334,2197.111Z" transform="translate(5937.619 -2190.5)"/></g></svg>