<svg xmlns="http://www.w3.org/2000/svg" width="24.769" height="24.999" viewBox="0 0 24.769 24.999"><defs><style>.a{fill:#fff;stroke:rgba(0,0,0,0);stroke-miterlimit:10;}</style></defs><g transform="translate(0.5 0.5)"><path class="a" d="M-5868.163,2214.5a11.753,11.753,0,0,1-8.4-3.514,11.983,11.983,0,0,1-3.481-8.487,11.981,11.981,0,0,1,3.481-8.485,11.747,11.747,0,0,1,8.4-3.514,11.749,11.749,0,0,1,8.4,3.514,11.982,11.982,0,0,1,3.479,8.485,11.984,11.984,0,0,1-3.479,8.487A11.754,11.754,0,0,1-5868.163,2214.5Zm-.339-13.166a34.592,34.592,0,0,0-3.828.155,1.411,1.411,0,0,0-1.2,1.095,11.949,11.949,0,0,0-.2,2.631,11.882,11.882,0,0,0,.193,2.63,1.407,1.407,0,0,0,1.2,1.094,37.223,37.223,0,0,0,4.169.156,37.205,37.205,0,0,0,4.169-.156,1.408,1.408,0,0,0,1.2-1.094,12.025,12.025,0,0,0,.195-2.63v-.04a11.8,11.8,0,0,0-.193-2.591,1.4,1.4,0,0,0-1.2-1.095,34.6,34.6,0,0,0-3.828-.155h-.682Zm1.449-4.145v2.968a1.952,1.952,0,0,0,.059.558.421.421,0,0,0,.438.279,1.109,1.109,0,0,0,.777-.46v.407h.679v-3.751h-.679v2.869c-.15.211-.3.317-.431.317-.091,0-.143-.052-.16-.159a1.762,1.762,0,0,1-.007-.264v-2.762Zm-1.564-.046a.93.93,0,0,0-.792.385,1.459,1.459,0,0,0-.211.884v1.313a1.45,1.45,0,0,0,.211.883.93.93,0,0,0,.792.385.931.931,0,0,0,.794-.385,1.46,1.46,0,0,0,.21-.882v-1.313a1.47,1.47,0,0,0-.21-.884A.932.932,0,0,0-5868.617,2197.142Zm-3.615-1.237q.127.376.259.754l0,.008q.111.321.22.641a12.534,12.534,0,0,1,.462,1.592v2.038h.753V2198.9l.907-3h-.761l-.515,1.977-.536-1.977Zm7.821,11.664a.963.963,0,0,1-.814-.382,1.441,1.441,0,0,1-.216-.874v-1.3a1.429,1.429,0,0,1,.208-.875.959.959,0,0,1,.8-.383.928.928,0,0,1,.793.382,1.443,1.443,0,0,1,.208.875v.767h-1.345v.66c0,.345.112.513.343.513a.289.289,0,0,0,.3-.27,4.479,4.479,0,0,0,.015-.454h.687v.1c0,.185-.005.352-.014.434a.963.963,0,0,1-.158.4A.93.93,0,0,1-5864.411,2207.57Zm-.022-3.205c-.224,0-.338.173-.338.515v.344h.671v-.344C-5864.1,2204.538-5864.212,2204.364-5864.434,2204.364Zm-2.137,3.2a.918.918,0,0,1-.7-.41v.358h-.673v-4.983h.673v1.628a.917.917,0,0,1,.7-.4.531.531,0,0,1,.537.421,2.875,2.875,0,0,1,.068.745v1.48a2.977,2.977,0,0,1-.068.747A.532.532,0,0,1-5866.57,2207.568Zm-.36-3.2a.48.48,0,0,0-.336.164v2.262a.477.477,0,0,0,.336.165c.194,0,.292-.168.292-.5v-1.585C-5866.638,2204.535-5866.736,2204.364-5866.93,2204.364Zm-3.033,3.2a.414.414,0,0,1-.434-.276,1.943,1.943,0,0,1-.059-.552v-2.935h.673v2.733a2.235,2.235,0,0,0,.006.263c.018.106.067.155.158.155.136,0,.275-.1.425-.313v-2.838h.673v3.711h-.673v-.406A1.075,1.075,0,0,1-5869.963,2207.568Zm-1.4-.052h-.748v-4.282h-.791v-.7h2.345v.7h-.806v4.281Zm2.743-7.142c-.218,0-.324-.17-.324-.521v-1.577c0-.351.106-.521.324-.521s.325.17.325.521v1.577C-5868.292,2200.2-5868.4,2200.374-5868.617,2200.374Z" transform="translate(5880.048 -2190.5)"/></g></svg>