<svg xmlns="http://www.w3.org/2000/svg" width="30.568" height="80" viewBox="0 0 30.568 80"><defs><style>.a{fill:#cecece;}</style></defs><g transform="translate(11.918 24.692)"><path class="a" d="M866.535,549.741h-7.118l.01-10.8c.126-.8,1.014-2.31,3.472-2.31,3.01,0,3.588,2.148,3.612,2.238l.024.2Zm-5.494-1.626h3.868v-8.908c-.1-.23-.534-.946-2.01-.946-1.458,0-1.79.7-1.858.91Z" transform="translate(-859.417 -536.635)"/></g><g transform="translate(5.758 45.31)"><path class="a" d="M861.505,558.578h-5.168l.006-9.5a2.439,2.439,0,0,1,2.528-2.134,2.6,2.6,0,0,1,2.62,2.08l.014.15Zm-3.542-1.626h1.916V549.27a.965.965,0,0,0-1.008-.7.822.822,0,0,0-.908.67Z" transform="translate(-856.337 -546.944)"/></g><g transform="translate(13.304 45.31)"><path class="a" d="M865.276,558.578H860.11l.006-9.5a2.437,2.437,0,0,1,2.528-2.134,2.6,2.6,0,0,1,2.62,2.08l.012.15Zm-3.54-1.626h1.916V549.27a.966.966,0,0,0-1.008-.7.822.822,0,0,0-.908.67Z" transform="translate(-860.11 -546.944)"/></g><g transform="translate(20.182 45.31)"><path class="a" d="M868.715,558.578h-5.166l.006-9.5a2.437,2.437,0,0,1,2.528-2.134,2.6,2.6,0,0,1,2.62,2.08l.012.15Zm-3.54-1.626h1.916v-7.684a.965.965,0,0,0-1.008-.7.822.822,0,0,0-.908.67Z" transform="translate(-863.549 -546.944)"/></g><path class="a" d="M881.562,561.633s1.54-6.39-1.694-6.468L877.1,555.1v-6.786h1.348V546l-6.67-9.316s1.968-1.424,1.968-3.312a2.822,2.822,0,0,0-2.578-2.878s.958-6.128-2.384-6.2v-.008l-.038,0-.038,0v.008c-3.342.072-2.384,6.2-2.384,6.2a2.822,2.822,0,0,0-2.578,2.878c0,1.888,1.968,3.312,1.968,3.312L859.04,546v2.31h1.348V555.1l-2.772.066c-3.234.078-1.694,6.468-1.694,6.468l-2.464,3.774V586.2h3.618v18.094h3.08V583.577H856.23V565.945l3-3.31v-2s-1.462.154-1.462-1.618c0-1.338,1.758-1.444,2.618-1.416v9.27H877.1V557.6c.86-.028,2.618.078,2.618,1.416,0,1.772-1.462,1.618-1.462,1.618v2l3,3.31v17.632h-3.926v20.712h3.08V586.2h3.618V565.407ZM862.928,544.5l5.16-6.968V535.3s-2.388-.038-2.388-1.964,2.464-2,2.464-2v-4.312l.578-.036.578.036v4.312s2.464.078,2.464,2S869.4,535.3,869.4,535.3v2.232l5.16,6.968v1.426H862.928Zm0,19.75v-16.63h11.628v16.63Z" transform="translate(-853.458 -524.289)"/></svg>