<svg xmlns="http://www.w3.org/2000/svg" width="50.668" height="80" viewBox="0 0 50.668 80"><defs><style>.a{fill:#cecece;}</style></defs><path class="a" d="M892.6,605.947h4v-2.666h-2.15l.884-2.656a9.768,9.768,0,0,1,18.534,0l.882,2.656H912.6v2.666h17.334v-2.666H928.07l-9.244-17.332H920.6v-2.668h-3.066l-4.364-12h2.1v-2.666h-2.828l-3.654-28h2.482v-2.668H908.6v-4a1.333,1.333,0,0,0-1.334-1.332h-1.334v-6.668H903.27v6.668h-1.334a1.331,1.331,0,0,0-1.332,1.332v4h-2.668v2.668h2.482l-3.652,28h-2.83v2.666h2.1l-4.362,12H888.6v2.668h1.776l-9.244,17.332H879.27v2.666Zm10.666-70.666h2.666v2.666H903.27Zm-.162,5.334H906.1l3.652,28h-10.3Zm-4.238,30.666h11.466l4.364,12h-3.758l-2.39-8.366a1.339,1.339,0,0,0-1.282-.968h-5.334a1.336,1.336,0,0,0-1.28.968l-2.392,8.366h-3.756Zm9.3,12h-7.13l1.9-6.666h3.322ZM893.4,585.949h22.4l9.244,17.332h-7.484l-1.166-3.5a12.434,12.434,0,0,0-23.59,0l-1.166,3.5H884.16Z" transform="translate(-879.27 -525.947)"/></svg>