<svg xmlns="http://www.w3.org/2000/svg" width="89.362" height="80" viewBox="0 0 89.362 80"><defs><style>.a{fill:#cecece;}</style></defs><path class="a" d="M847.259,567.979c.948,1.65.708,2.138-1,2.288s-3.394.336-5.1.418c-1.936.092-2.548-.91-1.568-2.59a7.756,7.756,0,0,0,.342-6.562,2.407,2.407,0,0,0-3.912-1.378,7.719,7.719,0,0,1-8,.446c-.53-.258-1.036-.562-1.556-.842-1.456-.784-2.366-.4-2.322,1.264a13.778,13.778,0,0,0,.97,4.36,6.947,6.947,0,0,0,1.762,2.342,18.293,18.293,0,0,1,4.7,8.55c2.288,8.2,8.92,11.452,16.956,8.428l.64-.242.332.334c-1.812,2.21-3.5,4.534-5.46,6.608a23.73,23.73,0,0,1-13.93,7.73c-1.456.218-2.33-.02-2.63-1.582a21.814,21.814,0,0,0-.85-2.568,14.617,14.617,0,0,0-1.626,2.456c-.576,1.458-1.482,1.444-2.654.894-.264-.126-.536-.234-1.172-.508,1.2-1.874,2.284-3.706,3.516-5.432a2.025,2.025,0,0,0,.374-2.122c-1.034-2.862-1.988-5.75-2.976-8.642-2.882,1.432-4.29.892-5.474-2-.928-2.264-3.1-3.036-5.486-1.956-1.592.72-3.082.24-3.24-1.24a3.324,3.324,0,0,1,.878-2.28c1.374-1.5,1.864-2.942,1.208-4.528a3.808,3.808,0,0,0-4.046-2.316c-1.508.054-2.514-.556-2.654-1.738A2.182,2.182,0,0,1,805.1,563.1a3.8,3.8,0,0,0,0-7.354c-1.4-.5-2.13-1.5-1.8-2.606a2.169,2.169,0,0,1,2.6-1.63,3.758,3.758,0,0,0,4.018-2.108,3.8,3.8,0,0,0-1.008-4.554c-1.228-1.186-1.436-2.372-.546-3.324a2.042,2.042,0,0,1,2.682-.41,3.761,3.761,0,0,0,4.644-.472c1.3-1.172,1.5-2.692.636-4.734a2.077,2.077,0,0,1,.708-2.85,2.044,2.044,0,0,1,2.788.432c2.02,2.006,3.354,2.128,5.974.526.466,1.028,1.678,1.816.666,3.218-.126.178.278.778.488,1.152.506.9,1.04,1.774,1.654,2.816l1.9-1.3c-.874-1.936-1.6-3.876-2.606-5.658-.746-1.326-.4-2.058.75-2.736.5-.294.964-.648,1.584-1.068.222,1.128,1.464,2.05-.052,3.024-.108.07-.09.472-.014.674.614,1.6,1.258,3.184,1.944,4.906l2.118-.934c-.69-2.9-1.36-5.71-2.074-8.712l4.214-1.43.352,2.482-1.5.63,1.176,6.312,2.646-.494c-.2-3.028-.4-5.964-.6-8.978h4.532v2.374h-1.6c0,1.952-.032,3.862.036,5.768.008.278.446.682.76.776a8.575,8.575,0,0,0,1.828.126l.822-8.278c2.952.334,3.878,1.27,3.182,3.17l-1.01-.23-.928,5.82,2.18.772,1.63-7.242a24.088,24.088,0,0,1,2.032,2.1c.426.564.116,1.028-.644,1.354a.986.986,0,0,0-.464.582c-.252.9-.372,1.842-.69,2.716-.41,1.13,0,1.664,1.192,1.9l1.6-4.754c1.674,2.452-.838,4.5-.27,6.728-.1.054-.224.162-.266.136-2.456-1.422-4.736-.984-7.088.4a9.941,9.941,0,0,1-7.3.9c-3.626-.754-4.52-.292-5.968,3.024a4.905,4.905,0,0,1-3.846,3.274c-1.206.194-1.188,1.186-1.12,2.052.09,1.122.942.95,1.674.756a16.84,16.84,0,0,1,8.888-.2c2.25.6,3.514,1.81,3.748,4.254.322,3.376.894,6.728,1.378,10.09.352,2.444,1.326,2.992,3.646,2.08C846.635,568.247,846.9,568.129,847.259,567.979Zm-13.61-12.368c1.994-.87,3.572.286,5.4.916l.266-2.012a3.415,3.415,0,0,1-1.072-.184c-3.16-1.878-6.428-1.764-9.774-.606a2.442,2.442,0,0,0-.972,3.924c1.44-1.084,2.724-2.736,4.96-1.852l-.938,1.374,3.264-.356Zm-22.126,6.236a2.38,2.38,0,0,0-2.418,2.288,2.368,2.368,0,1,0,4.734.11A2.391,2.391,0,0,0,811.523,561.847Zm3.6,8.544a2.006,2.006,0,1,0,1.926,2.038A2.04,2.04,0,0,0,815.123,570.391Zm8.448-30.45a2.007,2.007,0,0,0-4.012-.028,2.023,2.023,0,0,0,2.072,2.03A2,2,0,0,0,823.571,539.941Zm-6.232,6.8a1.991,1.991,0,0,0-1.742-2.168,1.957,1.957,0,0,0-2.236,1.822,1.861,1.861,0,0,0,1.668,2.07A1.952,1.952,0,0,0,817.339,546.745Zm-5.732,6.114a1.99,1.99,0,0,0-1.926,2,1.978,1.978,0,1,0,3.954-.11A1.964,1.964,0,0,0,811.607,552.859Zm12.842-5.658a1.87,1.87,0,0,0-1.9-1.9,1.786,1.786,0,0,0-1.918,1.824,1.828,1.828,0,0,0,1.938,1.94A1.872,1.872,0,0,0,824.449,547.2ZM816.9,561.383l.716.006c.446-.64,1.152-1.236,1.276-1.934.178-1-.558-1.662-1.6-1.666s-1.8.622-1.63,1.636C815.777,560.127,816.467,560.733,816.9,561.383Zm2.618,19.606.648-.008c.4-.572,1.05-1.106,1.148-1.728a1.336,1.336,0,0,0-1.51-1.568c-1,.018-1.65.664-1.476,1.606C818.443,579.909,819.1,580.427,819.519,580.989Zm3.448-9.886-.69-.008c-.384.57-.986,1.1-1.1,1.72a1.18,1.18,0,0,0,1.392,1.446,2.2,2.2,0,0,0,1.446-1.432C824.089,572.317,823.349,571.683,822.967,571.1Zm-4.5-2.946.684.036c.412-.558,1.18-1.146,1.138-1.67a1.4,1.4,0,0,0-2.806-.13C817.391,566.909,818.105,567.565,818.465,568.157Zm2.188-15.448.02-.714c-.562-.4-1.162-1.152-1.674-1.094a2.186,2.186,0,0,0-1.486,1.372,1.181,1.181,0,0,0,1.384,1.454C819.517,553.639,820.069,553.065,820.653,552.709Zm9.956,5.766.054.73a17.818,17.818,0,0,0,2.322.156c.248-.012.472-.468.708-.72-.274-.224-.562-.652-.816-.632A16.971,16.971,0,0,0,830.609,558.475Z" transform="translate(-788.184 -519.202)"/><path class="a" d="M832.147,534.36l4.8-5.554c18.278,15.042,19.054,45.618-2.46,61.538l-4.374-6C846.489,572.368,847.535,547.722,832.147,534.36Z" transform="translate(-761.286 -518.309)"/><path class="a" d="M808.081,534.915a3.3,3.3,0,1,1-3.38-3.216A3.375,3.375,0,0,1,808.081,534.915Z" transform="translate(-789.919 -515.418)"/><path class="a" d="M831.194,554.205c-1.41,3.014-6.776,2.6-8.656.736a4.866,4.866,0,0,0-3.026-1.826c2.692-1.058,5.062-2.914,8.176-1.96a3.933,3.933,0,0,0,2.042-.09c1.436-.378,2.35.206,3.2,1.608H822.606C823.642,554.711,823.86,554.743,831.194,554.205Z" transform="translate(-771.889 -496.224)"/><path class="a" d="M831.508,543.245c-1.4-1.722-3.068-1.3-4.688-1.33a4.436,4.436,0,0,1,5.476.648,2.85,2.85,0,0,1-1.172,4.688,6.879,6.879,0,0,1-6.054-.89c-1.226-.814-1.152-1.78.232-2.218a33.7,33.7,0,0,1,4.674-.888A10.93,10.93,0,0,1,831.508,543.245Zm-5.044,1.85.012.6a18.817,18.817,0,0,0,2.7.456c.272.01.864-.714.792-.884-.166-.4-.686-.974-.994-.936A13.8,13.8,0,0,0,826.464,545.1Z" transform="translate(-767.197 -505.855)"/><path class="a" d="M805.1,548.646a2.82,2.82,0,0,1-2.72,2.762,2.78,2.78,0,1,1-.11-5.558A2.8,2.8,0,0,1,805.1,548.646Z" transform="translate(-791.859 -501.266)"/><path class="a" d="M807.854,555.228a2.8,2.8,0,0,1-2.89,2.73,2.758,2.758,0,0,1,.2-5.512A2.8,2.8,0,0,1,807.854,555.228Z" transform="translate(-789.093 -494.671)"/><path class="a" d="M812.232,534.307a2.725,2.725,0,0,1-5.45-.094,2.725,2.725,0,0,1,5.45.094Z" transform="translate(-784.619 -515.578)"/><path class="a" d="M806.186,553.581a2.724,2.724,0,1,1,2.718-2.718A2.753,2.753,0,0,1,806.186,553.581Z" transform="translate(-787.911 -498.982)"/><path class="a" d="M808.868,539.168a2.684,2.684,0,1,1-5.366-.05,2.683,2.683,0,0,1,5.366.05Z" transform="translate(-787.899 -510.614)"/><path class="a" d="M807.713,545.044a2.666,2.666,0,0,1-2.756,2.648,2.712,2.712,0,0,1-2.626-2.652,2.745,2.745,0,0,1,2.7-2.736A2.693,2.693,0,0,1,807.713,545.044Z" transform="translate(-789.07 -504.811)"/><path class="a" d="M802.331,538.754a2.684,2.684,0,1,1-.126,5.366,2.684,2.684,0,0,1,.126-5.366Z" transform="translate(-791.778 -508.361)"/><path class="a" d="M813.991,527.744a2.707,2.707,0,0,1,2.806-2.61,2.67,2.67,0,0,1,2.578,2.822,2.707,2.707,0,0,1-2.718,2.55A2.735,2.735,0,0,1,813.991,527.744Z" transform="translate(-777.41 -521.983)"/><path class="a" d="M812.8,529.788a2.7,2.7,0,0,1-2.724,2.692,2.744,2.744,0,0,1-2.694-2.6,2.812,2.812,0,0,1,2.674-2.786A2.734,2.734,0,0,1,812.8,529.788Z" transform="translate(-784.021 -520.02)"/><path class="a" d="M809.479,553.169a2.537,2.537,0,1,1-2.586,2.464A2.521,2.521,0,0,1,809.479,553.169Z" transform="translate(-784.508 -493.947)"/><path class="a" d="M800.392,540.771a2.345,2.345,0,0,1-2.262,2.4,2.391,2.391,0,0,1-2.428-2.258,2.455,2.455,0,0,1,2.282-2.428A2.41,2.41,0,0,1,800.392,540.771Z" transform="translate(-795.7 -508.628)"/><path class="a" d="M810.428,557.637a2.333,2.333,0,0,1,2.3,2.37,2.357,2.357,0,0,1-2.448,2.228,2.3,2.3,0,0,1,.146-4.6Z" transform="translate(-783.329 -489.478)"/><path class="a" d="M807.976,559.58a2.243,2.243,0,1,1-2.238-2.272A2.316,2.316,0,0,1,807.976,559.58Z" transform="translate(-787.911 -489.807)"/><path class="a" d="M823.022,525.862a2.264,2.264,0,0,1-4.526-.1,2.264,2.264,0,0,1,4.526.1Z" transform="translate(-772.905 -523.558)"/><path class="a" d="M805.384,527.953a2.246,2.246,0,1,1-2.246,2.258A2.307,2.307,0,0,1,805.384,527.953Z" transform="translate(-788.263 -519.162)"/><path class="a" d="M802.91,537.106a2.339,2.339,0,0,1-2.266,2.262,2.261,2.261,0,1,1,.01-4.522A2.313,2.313,0,0,1,802.91,537.106Z" transform="translate(-793.023 -512.269)"/><path class="a" d="M803.224,552.756a2.231,2.231,0,0,1-2.306,2.17,2.2,2.2,0,0,1-2.172-2.29,2.245,2.245,0,0,1,2.29-2.188A2.282,2.282,0,0,1,803.224,552.756Z" transform="translate(-792.655 -496.668)"/><path class="a" d="M801.491,544.915a2.244,2.244,0,1,1-2.3-2.182A2.248,2.248,0,0,1,801.491,544.915Z" transform="translate(-794.396 -504.383)"/><path class="a" d="M816.273,530.767a2.147,2.147,0,1,1-2.126-2.194A2.211,2.211,0,0,1,816.273,530.767Z" transform="translate(-779.422 -518.542)"/><path class="a" d="M813.7,525.973a2,2,0,1,1-3.988-.128,2,2,0,1,1,3.988.128Z" transform="translate(-781.691 -523.234)"/><path class="a" d="M832.793,541.251l-8.364.85c.23-.448.352-1.028.71-1.314C826.867,539.409,831.135,539.711,832.793,541.251Z" transform="translate(-766.971 -507.209)"/><path class="a" d="M808.538,531.663c-.914.562-1.5,1.2-1.942,1.116a1.857,1.857,0,0,1-1.11-1.358c-.038-.324.8-1.068,1.224-1.052C807.214,530.389,807.692,531.025,808.538,531.663Z" transform="translate(-785.916 -516.746)"/><path class="a" d="M801.4,542.826c.6.882,1.21,1.386,1.208,1.886,0,.414-.778,1.2-1.116,1.152a1.817,1.817,0,0,1-1.3-1.152C800.135,544.26,800.795,543.714,801.4,542.826Z" transform="translate(-791.21 -504.289)"/><path class="a" d="M804.683,551.258c-.914.576-1.482,1.218-1.93,1.142a1.849,1.849,0,0,1-1.126-1.33c-.044-.32.776-1.072,1.2-1.064C803.323,550.016,803.811,550.632,804.683,551.258Z" transform="translate(-789.776 -497.109)"/><path class="a" d="M814.353,557.976c-.88.634-1.414,1.316-1.85,1.256a1.867,1.867,0,0,1-1.2-1.278c-.064-.316.716-1.106,1.144-1.128C812.935,556.8,813.453,557.4,814.353,557.976Z" transform="translate(-780.101 -490.29)"/><path class="a" d="M806.883,555.661c.628.9,1.24,1.392,1.242,1.89,0,.416-.756,1.208-1.1,1.166a1.8,1.8,0,0,1-1.28-1.14C805.68,557.129,806.307,556.573,806.883,555.661Z" transform="translate(-785.657 -491.454)"/><path class="a" d="M802.613,536.079c.612.912,1.256,1.452,1.192,1.89a1.837,1.837,0,0,1-1.262,1.178c-.308.058-1.08-.728-1.1-1.156C801.429,537.5,802.019,536.993,802.613,536.079Z" transform="translate(-789.954 -511.036)"/><path class="a" d="M812.433,529.685c-.578-.918-1.214-1.488-1.134-1.924a1.819,1.819,0,0,1,1.334-1.094c.33-.038,1.066.766,1.056,1.182C813.679,528.339,813.065,528.817,812.433,529.685Z" transform="translate(-780.108 -520.45)"/></svg>